<svg width="420" height="860" viewBox="0 0 420 860" fill="none" xmlns="http://www.w3.org/2000/svg">
  <rect width="420" height="860" rx="36" fill="#E7E3DA"/>
  <rect x="22" y="18" width="376" height="824" rx="30" fill="#FCFBF8"/>
  <rect x="160" y="30" width="100" height="10" rx="5" fill="#1F1F1F"/>

  <rect x="38" y="68" width="344" height="142" rx="28" fill="url(#hero)"/>
  <text x="58" y="112" fill="white" font-family="Segoe UI, Arial, sans-serif" font-size="28" font-weight="700">Reporte diario</text>
  <text x="58" y="148" fill="#E7F3EE" font-family="Segoe UI, Arial, sans-serif" font-size="14">Ventas, ganancia, medios de pago</text>
  <text x="58" y="168" fill="#E7F3EE" font-family="Segoe UI, Arial, sans-serif" font-size="14">y productos mas vendidos.</text>

  <rect x="38" y="228" width="166" height="98" rx="24" fill="#F6F1E8"/>
  <text x="58" y="264" fill="#5B5650" font-family="Segoe UI, Arial, sans-serif" font-size="13">Ventas</text>
  <text x="58" y="302" fill="#152018" font-family="Segoe UI, Arial, sans-serif" font-size="24" font-weight="700">RD$ 1550.50</text>

  <rect x="216" y="228" width="166" height="98" rx="24" fill="#F6F1E8"/>
  <text x="236" y="264" fill="#5B5650" font-family="Segoe UI, Arial, sans-serif" font-size="13">Facturas</text>
  <text x="236" y="302" fill="#152018" font-family="Segoe UI, Arial, sans-serif" font-size="24" font-weight="700">4</text>

  <rect x="38" y="340" width="344" height="92" rx="22" fill="#1F473C"/>
  <text x="58" y="376" fill="#E8F6EE" font-family="Segoe UI, Arial, sans-serif" font-size="14">Ganancia estimada</text>
  <text x="58" y="412" fill="white" font-family="Segoe UI, Arial, sans-serif" font-size="28" font-weight="700">RD$ 410.25</text>

  <text x="40" y="470" fill="#1D1E1B" font-family="Segoe UI, Arial, sans-serif" font-size="22" font-weight="700">Metodos de pago</text>

  <rect x="38" y="492" width="344" height="76" rx="22" fill="white"/>
  <text x="58" y="524" fill="#1F1F1F" font-family="Segoe UI, Arial, sans-serif" font-size="16" font-weight="700">Efectivo</text>
  <text x="58" y="548" fill="#555555" font-family="Segoe UI, Arial, sans-serif" font-size="14">Total: RD$ 413.50</text>

  <rect x="38" y="580" width="344" height="76" rx="22" fill="white"/>
  <text x="58" y="612" fill="#1F1F1F" font-family="Segoe UI, Arial, sans-serif" font-size="16" font-weight="700">Transferencia</text>
  <text x="58" y="636" fill="#555555" font-family="Segoe UI, Arial, sans-serif" font-size="14">Total: RD$ 980.00</text>

  <rect x="38" y="668" width="344" height="76" rx="22" fill="white"/>
  <text x="58" y="700" fill="#1F1F1F" font-family="Segoe UI, Arial, sans-serif" font-size="16" font-weight="700">Tarjeta</text>
  <text x="58" y="724" fill="#555555" font-family="Segoe UI, Arial, sans-serif" font-size="14">Total: RD$ 157.00</text>

  <rect x="34" y="778" width="352" height="48" rx="20" fill="#F5EFE7"/>
  <circle cx="70" cy="802" r="8" fill="#A9AAA6"/>
  <circle cx="145" cy="802" r="8" fill="#A9AAA6"/>
  <circle cx="220" cy="802" r="8" fill="#A9AAA6"/>
  <circle cx="295" cy="802" r="8" fill="#1E4D40"/>
  <circle cx="350" cy="802" r="8" fill="#A9AAA6"/>
  <text x="56" y="823" fill="#7E807B" font-family="Segoe UI, Arial, sans-serif" font-size="10">POS</text>
  <text x="131" y="823" fill="#7E807B" font-family="Segoe UI, Arial, sans-serif" font-size="10">Stock</text>
  <text x="199" y="823" fill="#7E807B" font-family="Segoe UI, Arial, sans-serif" font-size="10">Facturas</text>
  <text x="282" y="823" fill="#1E4D40" font-family="Segoe UI, Arial, sans-serif" font-size="10">Reportes</text>
  <text x="336" y="823" fill="#7E807B" font-family="Segoe UI, Arial, sans-serif" font-size="10">Config</text>

  <defs>
    <linearGradient id="hero" x1="38" y1="68" x2="382" y2="210" gradientUnits="userSpaceOnUse">
      <stop stop-color="#1D4C40"/>
      <stop offset="1" stop-color="#4B7B61"/>
    </linearGradient>
  </defs>
</svg>
