<svg width="420" height="860" viewBox="0 0 420 860" fill="none" xmlns="http://www.w3.org/2000/svg">
  <rect width="420" height="860" rx="36" fill="#E7E3DA"/>
  <rect x="22" y="18" width="376" height="824" rx="30" fill="#FCFBF8"/>
  <rect x="160" y="30" width="100" height="10" rx="5" fill="#1F1F1F"/>

  <rect x="38" y="68" width="344" height="142" rx="28" fill="url(#hero)"/>
  <text x="58" y="112" fill="white" font-family="Segoe UI, Arial, sans-serif" font-size="28" font-weight="700">Inventario</text>
  <text x="58" y="148" fill="#E7F3EE" font-family="Segoe UI, Arial, sans-serif" font-size="14">Productos, costo, stock, alertas</text>
  <text x="58" y="168" fill="#E7F3EE" font-family="Segoe UI, Arial, sans-serif" font-size="14">y vencimientos de farmacia.</text>

  <rect x="38" y="228" width="166" height="98" rx="24" fill="#F6F1E8"/>
  <text x="58" y="264" fill="#5B5650" font-family="Segoe UI, Arial, sans-serif" font-size="13">Productos</text>
  <text x="58" y="302" fill="#152018" font-family="Segoe UI, Arial, sans-serif" font-size="24" font-weight="700">4</text>

  <rect x="216" y="228" width="166" height="98" rx="24" fill="#FFF4E5"/>
  <text x="236" y="264" fill="#8C5B18" font-family="Segoe UI, Arial, sans-serif" font-size="13">Stock bajo</text>
  <text x="236" y="302" fill="#8C5B18" font-family="Segoe UI, Arial, sans-serif" font-size="24" font-weight="700">1</text>

  <text x="40" y="360" fill="#1D1E1B" font-family="Segoe UI, Arial, sans-serif" font-size="22" font-weight="700">Alertas</text>

  <rect x="38" y="382" width="344" height="84" rx="22" fill="#FFF4E5"/>
    <text x="58" y="416" fill="#1F1F1F" font-family="Segoe UI, Arial, sans-serif" font-size="17" font-weight="700">Jarabe adulto</text>
  <text x="58" y="442" fill="#6C5A3A" font-family="Segoe UI, Arial, sans-serif" font-size="14">Stock: 5 | Vence: 2026-04-20</text>

  <text x="40" y="500" fill="#1D1E1B" font-family="Segoe UI, Arial, sans-serif" font-size="22" font-weight="700">Catalogo</text>

  <rect x="38" y="522" width="344" height="82" rx="22" fill="white"/>
  <text x="58" y="554" fill="#1F1F1F" font-family="Segoe UI, Arial, sans-serif" font-size="17" font-weight="700">Paracetamol 500mg</text>
  <text x="58" y="578" fill="#4B4B4B" font-family="Segoe UI, Arial, sans-serif" font-size="14">Codigo 1001 | Precio: RD$ 220.00</text>
  <text x="58" y="596" fill="#777777" font-family="Segoe UI, Arial, sans-serif" font-size="13">Stock: 8 | Costo: RD$ 150.00 | Vence: 2026-09-30</text>

  <rect x="38" y="616" width="344" height="82" rx="22" fill="white"/>
  <text x="58" y="648" fill="#1F1F1F" font-family="Segoe UI, Arial, sans-serif" font-size="17" font-weight="700">Ibuprofeno 400mg</text>
  <text x="58" y="672" fill="#4B4B4B" font-family="Segoe UI, Arial, sans-serif" font-size="14">Codigo 1002 | Precio: RD$ 145.50</text>
  <text x="58" y="690" fill="#777777" font-family="Segoe UI, Arial, sans-serif" font-size="13">Stock: 15 | Costo: RD$ 96.00 | Vence: 2026-08-15</text>

  <rect x="34" y="778" width="352" height="48" rx="20" fill="#F5EFE7"/>
  <circle cx="70" cy="802" r="8" fill="#A9AAA6"/>
  <circle cx="145" cy="802" r="8" fill="#1E4D40"/>
  <circle cx="220" cy="802" r="8" fill="#A9AAA6"/>
  <circle cx="295" cy="802" r="8" fill="#A9AAA6"/>
  <circle cx="350" cy="802" r="8" fill="#A9AAA6"/>
  <text x="56" y="823" fill="#7E807B" font-family="Segoe UI, Arial, sans-serif" font-size="10">POS</text>
  <text x="131" y="823" fill="#1E4D40" font-family="Segoe UI, Arial, sans-serif" font-size="10">Stock</text>
  <text x="199" y="823" fill="#7E807B" font-family="Segoe UI, Arial, sans-serif" font-size="10">Facturas</text>
  <text x="282" y="823" fill="#7E807B" font-family="Segoe UI, Arial, sans-serif" font-size="10">Reportes</text>
  <text x="336" y="823" fill="#7E807B" font-family="Segoe UI, Arial, sans-serif" font-size="10">Config</text>

  <defs>
    <linearGradient id="hero" x1="38" y1="68" x2="382" y2="210" gradientUnits="userSpaceOnUse">
      <stop stop-color="#1D4C40"/>
      <stop offset="1" stop-color="#4B7B61"/>
    </linearGradient>
  </defs>
</svg>
