<svg width="420" height="860" viewBox="0 0 420 860" fill="none" xmlns="http://www.w3.org/2000/svg">
  <rect width="420" height="860" rx="36" fill="#E9E1D5"/>
  <rect x="22" y="18" width="376" height="824" rx="30" fill="#FCFAF6"/>
  <rect x="160" y="30" width="100" height="10" rx="5" fill="#1F1F1F"/>

  <rect x="38" y="68" width="344" height="146" rx="28" fill="url(#hero)"/>
  <text x="58" y="112" fill="white" font-family="Segoe UI, Arial, sans-serif" font-size="28" font-weight="700">Facturas emitidas</text>
  <text x="58" y="150" fill="#E8F3EC" font-family="Segoe UI, Arial, sans-serif" font-size="15">Historial resumido de ventas</text>
  <text x="58" y="172" fill="#E8F3EC" font-family="Segoe UI, Arial, sans-serif" font-size="15">con estado de pago.</text>
  <rect x="58" y="184" width="126" height="30" rx="15" fill="#F0F8F3" fill-opacity="0.18"/>
  <text x="84" y="203" fill="white" font-family="Segoe UI, Arial, sans-serif" font-size="13" font-weight="600">Solo pendientes</text>

  <rect x="38" y="238" width="344" height="108" rx="22" fill="white"/>
  <text x="58" y="276" fill="#1F1F1F" font-family="Segoe UI, Arial, sans-serif" font-size="18" font-weight="700">FAC-0012</text>
  <text x="305" y="276" fill="#2E7D32" font-family="Segoe UI, Arial, sans-serif" font-size="14" font-weight="700">Pagada</text>
  <text x="58" y="306" fill="#444444" font-family="Segoe UI, Arial, sans-serif" font-size="15">Tecno Red</text>
  <text x="58" y="330" fill="#7A7A7A" font-family="Segoe UI, Arial, sans-serif" font-size="14">Total: $365.50   Fecha: 2026-03-10</text>

  <rect x="38" y="360" width="344" height="108" rx="22" fill="white"/>
  <text x="58" y="398" fill="#1F1F1F" font-family="Segoe UI, Arial, sans-serif" font-size="18" font-weight="700">FAC-0013</text>
  <text x="284" y="398" fill="#B77709" font-family="Segoe UI, Arial, sans-serif" font-size="14" font-weight="700">Pendiente</text>
  <text x="58" y="428" fill="#444444" font-family="Segoe UI, Arial, sans-serif" font-size="15">Comercial Luna</text>
  <text x="58" y="452" fill="#7A7A7A" font-family="Segoe UI, Arial, sans-serif" font-size="14">Total: $980.00   Fecha: 2026-03-11</text>

  <rect x="38" y="482" width="344" height="108" rx="22" fill="white"/>
  <text x="58" y="520" fill="#1F1F1F" font-family="Segoe UI, Arial, sans-serif" font-size="18" font-weight="700">FAC-0014</text>
  <text x="305" y="520" fill="#2E7D32" font-family="Segoe UI, Arial, sans-serif" font-size="14" font-weight="700">Pagada</text>
  <text x="58" y="550" fill="#444444" font-family="Segoe UI, Arial, sans-serif" font-size="15">Servicios Andinos</text>
  <text x="58" y="574" fill="#7A7A7A" font-family="Segoe UI, Arial, sans-serif" font-size="14">Total: $157.00   Fecha: 2026-03-12</text>

  <rect x="38" y="604" width="344" height="108" rx="22" fill="white"/>
  <text x="58" y="642" fill="#1F1F1F" font-family="Segoe UI, Arial, sans-serif" font-size="18" font-weight="700">FAC-0015</text>
  <text x="284" y="642" fill="#B77709" font-family="Segoe UI, Arial, sans-serif" font-size="14" font-weight="700">Pendiente</text>
  <text x="58" y="672" fill="#444444" font-family="Segoe UI, Arial, sans-serif" font-size="15">Tecno Red</text>
  <text x="58" y="696" fill="#7A7A7A" font-family="Segoe UI, Arial, sans-serif" font-size="14">Total: $48.00   Fecha: 2026-03-12</text>

  <rect x="34" y="778" width="352" height="48" rx="20" fill="#F5EFE7"/>
  <circle cx="85" cy="802" r="8" fill="#A9AAA6"/>
  <circle cx="165" cy="802" r="8" fill="#A9AAA6"/>
  <circle cx="245" cy="802" r="8" fill="#A9AAA6"/>
  <circle cx="325" cy="802" r="8" fill="#1E4D40"/>
  <text x="68" y="823" fill="#7E807B" font-family="Segoe UI, Arial, sans-serif" font-size="11">Inicio</text>
  <text x="142" y="823" fill="#7E807B" font-family="Segoe UI, Arial, sans-serif" font-size="11">Clientes</text>
  <text x="220" y="823" fill="#7E807B" font-family="Segoe UI, Arial, sans-serif" font-size="11">Productos</text>
  <text x="304" y="823" fill="#1E4D40" font-family="Segoe UI, Arial, sans-serif" font-size="11">Facturas</text>

  <defs>
    <linearGradient id="hero" x1="38" y1="68" x2="382" y2="214" gradientUnits="userSpaceOnUse">
      <stop stop-color="#1E4D40"/>
      <stop offset="1" stop-color="#44795B"/>
    </linearGradient>
  </defs>
</svg>
