<svg width="420" height="860" viewBox="0 0 420 860" fill="none" xmlns="http://www.w3.org/2000/svg">
  <rect width="420" height="860" rx="36" fill="#E7E3DA"/>
  <rect x="22" y="18" width="376" height="824" rx="30" fill="#FCFBF8"/>
  <rect x="160" y="30" width="100" height="10" rx="5" fill="#1F1F1F"/>

  <rect x="38" y="68" width="344" height="142" rx="28" fill="url(#hero)"/>
  <text x="58" y="112" fill="white" font-family="Segoe UI, Arial, sans-serif" font-size="28" font-weight="700">Facturas</text>
  <text x="58" y="148" fill="#E7F3EE" font-family="Segoe UI, Arial, sans-serif" font-size="14">Historial, edicion y eliminacion</text>
  <text x="58" y="168" fill="#E7F3EE" font-family="Segoe UI, Arial, sans-serif" font-size="14">de ventas por cliente.</text>

  <rect x="38" y="228" width="166" height="98" rx="24" fill="#F6F1E8"/>
  <text x="58" y="264" fill="#5B5650" font-family="Segoe UI, Arial, sans-serif" font-size="13">Facturas</text>
  <text x="58" y="302" fill="#152018" font-family="Segoe UI, Arial, sans-serif" font-size="24" font-weight="700">4</text>

  <rect x="216" y="228" width="166" height="98" rx="24" fill="#F6F1E8"/>
  <text x="236" y="264" fill="#5B5650" font-family="Segoe UI, Arial, sans-serif" font-size="13">Clientes</text>
  <text x="236" y="302" fill="#152018" font-family="Segoe UI, Arial, sans-serif" font-size="24" font-weight="700">3</text>

  <text x="40" y="360" fill="#1D1E1B" font-family="Segoe UI, Arial, sans-serif" font-size="22" font-weight="700">Historial</text>

  <rect x="38" y="382" width="344" height="92" rx="22" fill="white"/>
  <text x="58" y="416" fill="#1F1F1F" font-family="Segoe UI, Arial, sans-serif" font-size="17" font-weight="700">FAC-0012</text>
  <text x="306" y="416" fill="#2E7D32" font-family="Segoe UI, Arial, sans-serif" font-size="13" font-weight="700">Pagada</text>
  <text x="58" y="442" fill="#4B4B4B" font-family="Segoe UI, Arial, sans-serif" font-size="14">Tecno Red</text>
  <text x="58" y="460" fill="#777777" font-family="Segoe UI, Arial, sans-serif" font-size="13">Total: RD$ 365.50 | Pago: Efectivo</text>

  <rect x="38" y="486" width="344" height="92" rx="22" fill="white"/>
  <text x="58" y="520" fill="#1F1F1F" font-family="Segoe UI, Arial, sans-serif" font-size="17" font-weight="700">FAC-0013</text>
  <text x="286" y="520" fill="#B77709" font-family="Segoe UI, Arial, sans-serif" font-size="13" font-weight="700">Pendiente</text>
  <text x="58" y="546" fill="#4B4B4B" font-family="Segoe UI, Arial, sans-serif" font-size="14">Comercial Luna</text>
  <text x="58" y="564" fill="#777777" font-family="Segoe UI, Arial, sans-serif" font-size="13">Total: RD$ 980.00 | Pago: Transferencia</text>

  <rect x="38" y="590" width="344" height="92" rx="22" fill="white"/>
  <text x="58" y="624" fill="#1F1F1F" font-family="Segoe UI, Arial, sans-serif" font-size="17" font-weight="700">FAC-0014</text>
  <text x="306" y="624" fill="#2E7D32" font-family="Segoe UI, Arial, sans-serif" font-size="13" font-weight="700">Pagada</text>
  <text x="58" y="650" fill="#4B4B4B" font-family="Segoe UI, Arial, sans-serif" font-size="14">Servicios Andinos</text>
  <text x="58" y="668" fill="#777777" font-family="Segoe UI, Arial, sans-serif" font-size="13">Total: RD$ 157.00 | Pago: Tarjeta</text>

  <rect x="34" y="778" width="352" height="48" rx="20" fill="#F5EFE7"/>
  <circle cx="70" cy="802" r="8" fill="#A9AAA6"/>
  <circle cx="145" cy="802" r="8" fill="#A9AAA6"/>
  <circle cx="220" cy="802" r="8" fill="#1E4D40"/>
  <circle cx="295" cy="802" r="8" fill="#A9AAA6"/>
  <circle cx="350" cy="802" r="8" fill="#A9AAA6"/>
  <text x="56" y="823" fill="#7E807B" font-family="Segoe UI, Arial, sans-serif" font-size="10">POS</text>
  <text x="131" y="823" fill="#7E807B" font-family="Segoe UI, Arial, sans-serif" font-size="10">Stock</text>
  <text x="199" y="823" fill="#1E4D40" font-family="Segoe UI, Arial, sans-serif" font-size="10">Facturas</text>
  <text x="282" y="823" fill="#7E807B" font-family="Segoe UI, Arial, sans-serif" font-size="10">Reportes</text>
  <text x="336" y="823" fill="#7E807B" font-family="Segoe UI, Arial, sans-serif" font-size="10">Config</text>

  <defs>
    <linearGradient id="hero" x1="38" y1="68" x2="382" y2="210" gradientUnits="userSpaceOnUse">
      <stop stop-color="#1D4C40"/>
      <stop offset="1" stop-color="#4B7B61"/>
    </linearGradient>
  </defs>
</svg>
