<svg width="420" height="860" viewBox="0 0 420 860" fill="none" xmlns="http://www.w3.org/2000/svg">
  <rect width="420" height="860" rx="36" fill="#E7E3DA"/>
  <rect x="22" y="18" width="376" height="824" rx="30" fill="#FCFBF8"/>
  <rect x="160" y="30" width="100" height="10" rx="5" fill="#1F1F1F"/>

  <rect x="38" y="68" width="344" height="148" rx="28" fill="url(#hero)"/>
  <text x="58" y="110" fill="white" font-family="Segoe UI, Arial, sans-serif" font-size="15">Vende Facil RD</text>
  <text x="58" y="148" fill="white" font-family="Segoe UI, Arial, sans-serif" font-size="28" font-weight="700">POS Farmacia</text>
  <text x="58" y="178" fill="#E7F3EE" font-family="Segoe UI, Arial, sans-serif" font-size="14">Inventario, vencimientos, facturas</text>
  <text x="58" y="198" fill="#E7F3EE" font-family="Segoe UI, Arial, sans-serif" font-size="14">y control por usuario.</text>

  <rect x="38" y="234" width="166" height="98" rx="24" fill="#F6F1E8"/>
  <text x="58" y="270" fill="#5B5650" font-family="Segoe UI, Arial, sans-serif" font-size="13">Ventas hoy</text>
  <text x="58" y="308" fill="#152018" font-family="Segoe UI, Arial, sans-serif" font-size="24" font-weight="700">RD$ 1550.50</text>

  <rect x="216" y="234" width="166" height="98" rx="24" fill="#F6F1E8"/>
  <text x="236" y="270" fill="#5B5650" font-family="Segoe UI, Arial, sans-serif" font-size="13">Ganancia</text>
  <text x="236" y="308" fill="#152018" font-family="Segoe UI, Arial, sans-serif" font-size="24" font-weight="700">RD$ 410.25</text>

  <text x="40" y="366" fill="#1D1E1B" font-family="Segoe UI, Arial, sans-serif" font-size="22" font-weight="700">Acciones principales</text>

  <rect x="38" y="386" width="344" height="58" rx="20" fill="white"/>
  <circle cx="64" cy="415" r="9" fill="#1E4D40"/>
  <text x="84" y="420" fill="#26302A" font-family="Segoe UI, Arial, sans-serif" font-size="15">Agregar por codigo de barras</text>

  <rect x="38" y="456" width="344" height="58" rx="20" fill="white"/>
  <circle cx="64" cy="485" r="9" fill="#1E4D40"/>
  <text x="84" y="490" fill="#26302A" font-family="Segoe UI, Arial, sans-serif" font-size="15">Guardar e imprimir ticket</text>

  <text x="40" y="554" fill="#1D1E1B" font-family="Segoe UI, Arial, sans-serif" font-size="22" font-weight="700">Carrito / factura actual</text>

  <rect x="38" y="574" width="344" height="92" rx="22" fill="white"/>
  <text x="58" y="608" fill="#1F1F1F" font-family="Segoe UI, Arial, sans-serif" font-size="17" font-weight="700">Paracetamol 500mg</text>
  <text x="58" y="634" fill="#4B4B4B" font-family="Segoe UI, Arial, sans-serif" font-size="14">Cant: 2   Precio: RD$ 220.00</text>
  <text x="58" y="654" fill="#777777" font-family="Segoe UI, Arial, sans-serif" font-size="13">Subtotal: RD$ 440.00</text>

  <rect x="38" y="678" width="344" height="92" rx="22" fill="white"/>
  <text x="58" y="712" fill="#1F1F1F" font-family="Segoe UI, Arial, sans-serif" font-size="17" font-weight="700">Jarabe infantil</text>
  <text x="58" y="738" fill="#4B4B4B" font-family="Segoe UI, Arial, sans-serif" font-size="14">Cant: 1   Precio: RD$ 980.00</text>
  <text x="58" y="758" fill="#777777" font-family="Segoe UI, Arial, sans-serif" font-size="13">Subtotal: RD$ 980.00</text>

  <rect x="34" y="778" width="352" height="48" rx="20" fill="#F5EFE7"/>
  <circle cx="70" cy="802" r="8" fill="#1E4D40"/>
  <circle cx="145" cy="802" r="8" fill="#A9AAA6"/>
  <circle cx="220" cy="802" r="8" fill="#A9AAA6"/>
  <circle cx="295" cy="802" r="8" fill="#A9AAA6"/>
  <circle cx="350" cy="802" r="8" fill="#A9AAA6"/>
  <text x="56" y="823" fill="#1E4D40" font-family="Segoe UI, Arial, sans-serif" font-size="10">POS</text>
  <text x="131" y="823" fill="#7E807B" font-family="Segoe UI, Arial, sans-serif" font-size="10">Stock</text>
  <text x="199" y="823" fill="#7E807B" font-family="Segoe UI, Arial, sans-serif" font-size="10">Facturas</text>
  <text x="282" y="823" fill="#7E807B" font-family="Segoe UI, Arial, sans-serif" font-size="10">Reportes</text>
  <text x="336" y="823" fill="#7E807B" font-family="Segoe UI, Arial, sans-serif" font-size="10">Config</text>

  <defs>
    <linearGradient id="hero" x1="38" y1="68" x2="382" y2="216" gradientUnits="userSpaceOnUse">
      <stop stop-color="#1D4C40"/>
      <stop offset="1" stop-color="#4B7B61"/>
    </linearGradient>
  </defs>
</svg>
