<svg width="420" height="860" viewBox="0 0 420 860" fill="none" xmlns="http://www.w3.org/2000/svg">
  <rect width="420" height="860" rx="36" fill="#E9E1D5"/>
  <rect x="22" y="18" width="376" height="824" rx="30" fill="#FCFAF6"/>
  <rect x="160" y="30" width="100" height="10" rx="5" fill="#1F1F1F"/>

  <rect x="38" y="68" width="344" height="136" rx="28" fill="url(#hero)"/>
  <text x="58" y="112" fill="white" font-family="Segoe UI, Arial, sans-serif" font-size="28" font-weight="700">Productos</text>
  <text x="58" y="150" fill="#E8F3EC" font-family="Segoe UI, Arial, sans-serif" font-size="15">Catalogo inicial para ventas</text>
  <text x="58" y="172" fill="#E8F3EC" font-family="Segoe UI, Arial, sans-serif" font-size="15">y control de stock.</text>

  <rect x="38" y="228" width="344" height="108" rx="22" fill="white"/>
  <text x="58" y="266" fill="#1F1F1F" font-family="Segoe UI, Arial, sans-serif" font-size="18" font-weight="700">Impresora termica</text>
  <text x="58" y="296" fill="#444444" font-family="Segoe UI, Arial, sans-serif" font-size="15">Precio: $220.00</text>
  <text x="286" y="296" fill="#7A7A7A" font-family="Segoe UI, Arial, sans-serif" font-size="14">Stock: 8</text>

  <rect x="38" y="350" width="344" height="108" rx="22" fill="white"/>
  <text x="58" y="388" fill="#1F1F1F" font-family="Segoe UI, Arial, sans-serif" font-size="18" font-weight="700">Escaner de codigo</text>
  <text x="58" y="418" fill="#444444" font-family="Segoe UI, Arial, sans-serif" font-size="15">Precio: $145.50</text>
  <text x="282" y="418" fill="#7A7A7A" font-family="Segoe UI, Arial, sans-serif" font-size="14">Stock: 15</text>

  <rect x="38" y="472" width="344" height="108" rx="22" fill="white"/>
  <text x="58" y="510" fill="#1F1F1F" font-family="Segoe UI, Arial, sans-serif" font-size="18" font-weight="700">Tableta Android</text>
  <text x="58" y="540" fill="#444444" font-family="Segoe UI, Arial, sans-serif" font-size="15">Precio: $980.00</text>
  <text x="286" y="540" fill="#7A7A7A" font-family="Segoe UI, Arial, sans-serif" font-size="14">Stock: 5</text>

  <rect x="38" y="594" width="344" height="108" rx="22" fill="white"/>
  <text x="58" y="632" fill="#1F1F1F" font-family="Segoe UI, Arial, sans-serif" font-size="18" font-weight="700">Papel para tickets</text>
  <text x="58" y="662" fill="#444444" font-family="Segoe UI, Arial, sans-serif" font-size="15">Precio: $12.00</text>
  <text x="282" y="662" fill="#7A7A7A" font-family="Segoe UI, Arial, sans-serif" font-size="14">Stock: 50</text>

  <rect x="34" y="778" width="352" height="48" rx="20" fill="#F5EFE7"/>
  <circle cx="85" cy="802" r="8" fill="#A9AAA6"/>
  <circle cx="165" cy="802" r="8" fill="#A9AAA6"/>
  <circle cx="245" cy="802" r="8" fill="#1E4D40"/>
  <circle cx="325" cy="802" r="8" fill="#A9AAA6"/>
  <text x="68" y="823" fill="#7E807B" font-family="Segoe UI, Arial, sans-serif" font-size="11">Inicio</text>
  <text x="142" y="823" fill="#7E807B" font-family="Segoe UI, Arial, sans-serif" font-size="11">Clientes</text>
  <text x="220" y="823" fill="#1E4D40" font-family="Segoe UI, Arial, sans-serif" font-size="11">Productos</text>
  <text x="304" y="823" fill="#7E807B" font-family="Segoe UI, Arial, sans-serif" font-size="11">Facturas</text>

  <defs>
    <linearGradient id="hero" x1="38" y1="68" x2="382" y2="204" gradientUnits="userSpaceOnUse">
      <stop stop-color="#1E4D40"/>
      <stop offset="1" stop-color="#44795B"/>
    </linearGradient>
  </defs>
</svg>
